<svg width="122" height="40" viewBox="0 0 122 40" fill="none" xmlns="http://www.w3.org/2000/svg">
<path d="M63.585 27.0959L63.295 29.9959H60.482C58.8387 29.9959 57.5917 29.6093 56.741 28.8359C55.8903 28.0433 55.465 26.9026 55.465 25.4139V17.8159H53V14.9159H55.465L56.306 10.5659H58.8V14.9159H63.295V17.8159H58.8V25.4139C58.8 26.5353 59.3607 27.0959 60.482 27.0959H63.585Z" fill="black"/>
<path d="M80.7131 22.2819C80.7131 22.5719 80.6938 22.9296 80.6551 23.3549H68.5331C68.6878 24.5343 69.1711 25.4816 69.9831 26.1969C70.7951 26.8929 71.8295 27.2409 73.0861 27.2409C73.9368 27.2409 74.7005 27.0766 75.3771 26.7479C76.0731 26.4193 76.6048 25.9746 76.9721 25.4139L80.1041 25.9359C79.5628 27.3279 78.6251 28.4009 77.2911 29.1549C75.9765 29.9089 74.5071 30.2859 72.8831 30.2859C71.3751 30.2859 70.0218 29.9573 68.8231 29.2999C67.6438 28.6233 66.7158 27.6953 66.0391 26.5159C65.3818 25.3173 65.0531 23.9639 65.0531 22.4559C65.0531 20.9479 65.3818 19.6043 66.0391 18.4249C66.7158 17.2263 67.6438 16.2983 68.8231 15.6409C70.0218 14.9643 71.3751 14.6259 72.8831 14.6259C74.3911 14.6259 75.7348 14.9643 76.9141 15.6409C78.1128 16.2983 79.0408 17.2166 79.6981 18.3959C80.3748 19.5559 80.7131 20.8513 80.7131 22.2819ZM72.8831 17.5259C71.8778 17.5259 70.9981 17.8159 70.2441 18.3959C69.5095 18.9759 69.0068 19.7589 68.7361 20.7449H77.0881C76.7981 19.7783 76.2761 19.0049 75.5221 18.4249C74.7875 17.8256 73.9078 17.5259 72.8831 17.5259Z" fill="black"/>
<path d="M89.4598 14.6259C91.3931 14.6259 92.9108 15.2349 94.0128 16.4529C95.1341 17.6516 95.6948 19.3433 95.6948 21.5279V29.9959H93.2298L92.5338 27.6179C92.1085 28.3333 91.4801 28.9616 90.6488 29.5029C89.8175 30.0249 88.8315 30.2859 87.6908 30.2859C86.6855 30.2859 85.7768 30.0829 84.9648 29.6769C84.1721 29.2709 83.5535 28.7006 83.1088 27.9659C82.6641 27.2313 82.4418 26.3999 82.4418 25.4719C82.4418 24.0413 83.0025 22.9006 84.1238 22.0499C85.2645 21.1799 86.9175 20.7449 89.0828 20.7449H92.3308C92.2535 19.7396 91.9441 18.9469 91.4028 18.3669C90.8808 17.7676 90.1751 17.4679 89.2858 17.4679C88.5705 17.4679 87.9518 17.6419 87.4298 17.9899C86.9078 18.3379 86.5211 18.7633 86.2698 19.2659L83.1958 18.7439C83.5631 17.4679 84.3171 16.4626 85.4578 15.7279C86.6178 14.9933 87.9518 14.6259 89.4598 14.6259ZM88.4738 27.4729C89.6338 27.4729 90.5715 27.0959 91.2868 26.3419C92.0021 25.5879 92.3598 24.5923 92.3598 23.3549H89.1988C86.9368 23.3549 85.8058 24.0123 85.8058 25.3269C85.8058 25.9843 86.0475 26.5063 86.5308 26.8929C87.0141 27.2796 87.6618 27.4729 88.4738 27.4729Z" fill="black"/>
<path d="M99.3128 29.9959V14.9159H101.807L102.416 17.0619C102.822 16.3466 103.382 15.7666 104.098 15.3219C104.813 14.8579 105.673 14.6259 106.679 14.6259C107.684 14.6259 108.583 14.8676 109.376 15.3509C110.168 15.8343 110.758 16.5013 111.145 17.3519C111.512 16.5979 112.092 15.9599 112.885 15.4379C113.697 14.8966 114.654 14.6259 115.756 14.6259C116.8 14.6259 117.728 14.8966 118.54 15.4379C119.371 15.9599 120.009 16.6946 120.454 17.6419C120.918 18.5699 121.15 19.6333 121.15 20.8319V29.9959H117.815V21.1509C117.815 20.1069 117.544 19.2563 117.003 18.5989C116.461 17.9416 115.756 17.6129 114.886 17.6129C114.016 17.6129 113.3 17.9513 112.74 18.6279C112.179 19.2853 111.899 20.1263 111.899 21.1509V29.9959H108.564V21.1509C108.564 20.1069 108.293 19.2563 107.752 18.5989C107.21 17.9416 106.505 17.6129 105.635 17.6129C104.765 17.6129 104.049 17.9513 103.489 18.6279C102.928 19.2853 102.648 20.1263 102.648 21.1509V29.9959H99.3128Z" fill="black"/>
<path d="M19.168 40C10.16 40 5.632 40 2.832 37.216C0 34.416 0 29.888 0 20.848V19.184C0 10.144 0 5.616 2.832 2.816C5.632 0 10.16 0 19.168 0H20.832C29.872 0 34.368 0 37.2 2.816C40 5.632 40 10.144 40 19.184V20.848C40 29.888 40 34.416 37.2 37.216C34.368 40 29.872 40 20.832 40H19.168Z" fill="#0077FF"/>
<path d="M21.968 28.8478V22.8958C25.248 23.2318 27.6959 25.6798 28.704 28.8478H33.44C32.16 24.1118 28.832 21.4878 26.752 20.4958C28.816 19.2638 31.7439 16.2558 32.4319 12.1918H28.128C27.232 15.5038 24.544 18.4958 21.968 18.7838V12.1758H17.6V23.7118C14.944 23.0398 11.472 19.8078 11.312 12.1758H6.75195C6.95995 22.5758 12.432 28.8318 21.456 28.8318L21.968 28.8478Z" fill="white"/>
</svg>
